# xmcd
#
# Track frame offsets:
#	150
#	15264
#	29467
#	47790
#	64952
#	87491
#	96763
#	109781
#	126076
#	145776
#	158174
#	174345
#
# Disc length: 2462 seconds
#
# Revision: 1
# Processed by: cddbd v1.5PL3 Copyright (c) Steve Scherf et al.
# Submitted via: EasyCDDAExtractor 5.1.0
#
DISCID=98099c0c
DTITLE=Bearfoot Bluegrass - Back Home
DYEAR=2003
DGENRE=Bluegrass
TTITLE0=Dirty Kitchen
TTITLE1=Good Morning Country Rain
TTITLE2=Back Home
TTITLE3=Won't Be Long
TTITLE4=Love Chooses You
TTITLE5=I Know What It Means to be Lonesome
TTITLE6=Pretty Lady
TTITLE7=That Old Kind of Love
TTITLE8=Fishtrap Joe
TTITLE9=Homeless Waltz
TTITLE10=Sweetest Gift
TTITLE11=Her Memory's Bound to Ride
EXTD=
EXTT0=Frank Solivan II (Fiddlemon Music, BMI)
EXTT1=Eddy Raven (Sony/ATV Acuff Rose Music, BMI)
EXTT2=Angela Oudean (Bubinga Music, BMI)
EXTT3=J.L. McFarland (Chappell and Co., ASCAP)
EXTT4=Laurie Lewis (Forerunner Music/Spruce and Maple Music, ASCAP)
EXTT5=J. Brockman, J. Kendis, N.H. Vincent (EMI Feist Catalog Inc., ASCAP)
EXTT6=Jason Norris (Bubinga Music, BMI)
EXTT7=Annalisa Woodlee (Bubinga Music, BMI)
EXTT8=Mike Mickelson (Bubinga Music, BMI)
EXTT9=Carl Jones (Chordwood Music, ASCAP)
EXTT10=traditional (public domain)
EXTT11=BMI
PLAYORDER=
